<svg xmlns="http://www.w3.org/2000/svg" viewBox="0 0 64 64" role="img" aria-labelledby="title">
  <title id="title">두 손의 헌신에서 피어나는 돌봄</title>
  <defs>
    <mask id="hands">
      <rect width="64" height="64" fill="white" />
      <path fill="black" d="M12 31c4.2 5.9 8.8 9.7 14 11.3-3.3-3.5-6.5-7.3-9.7-11.4-1.7-2.2-3.1-2.1-4.3.1Z" />
      <path fill="black" d="M52 31c-4.2 5.9-8.8 9.7-14 11.3 3.3-3.5 6.5-7.3 9.7-11.4 1.7-2.2 3.1-2.1 4.3.1Z" />
    </mask>
  </defs>
  <path
    fill="#407D73"
    mask="url(#hands)"
    d="M3 57c4.8-4.9 9.6-8.5 14.5-11.1C10.8 41.5 7 34.8 7 27.2c0-3.7 2.8-5.4 5.5-2.8 3.2 3.1 4.7 8.2 9.2 11.3 3.8 2.6 7.8 5.1 10.3 10.2 2.5-5.1 6.5-7.6 10.3-10.2 4.5-3.1 6-8.2 9.2-11.3 2.7-2.6 5.5-.9 5.5 2.8 0 7.6-3.8 14.3-10.5 18.7 4.9 2.6 9.7 6.2 14.5 11-8.7 3.6-18.6 3.1-29-1.5C21.6 60 11.7 60.5 3 57Z"
  />
  <path
    fill="#407D73"
    d="M28.5 53V22a3.5 3.5 0 0 1 7 0v31c0 3.2-1.2 5.7-3.5 7-2.3-1.3-3.5-3.8-3.5-7Z"
  />
  <path
    fill="#62AD73"
    d="M29.5 31C20.6 30.2 16 25.8 16 18c8-.5 13.1 3.8 13.5 13Z"
  />
  <path
    fill="#62AD73"
    d="M34.5 31C43.4 30.2 48 25.8 48 18c-8-.5-13.1 3.8-13.5 13Z"
  />
  <path
    fill="#F27649"
    d="M32 22C25.6 18.4 24.3 12.8 27.7 7c1.8.5 3.2 1.6 4.3 3.2 1.1-1.6 2.5-2.7 4.3-3.2 3.4 5.8 2.1 11.4-4.3 15Z"
  />
</svg>
