<svg xmlns="http://www.w3.org/2000/svg" viewBox="0 0 64 64" role="img" aria-labelledby="title">
  <title id="title">스마트 요양일지 로고</title>
  <defs>
    <mask id="heart-cutout">
      <rect width="64" height="64" fill="white" />
      <path
        fill="black"
        d="M32 38.5c-2.5-2.1-9-6.8-9-12.2 0-3.8 2.8-6.6 6.3-6.6 1.9 0 3.4.9 4.2 2.4.8-1.5 2.3-2.4 4.2-2.4 3.5 0 6.3 2.8 6.3 6.6 0 5.4-6.5 10.1-9 12.2a2.3 2.3 0 0 1-3 0Z"
      />
      <path fill="none" stroke="black" stroke-linecap="round" stroke-width="4" d="M33.5 36v15" />
    </mask>
  </defs>
  <path
    fill="#28766D"
    mask="url(#heart-cutout)"
    d="M29.2 5.4a4 4 0 0 1 5.6 0C40.4 10.8 54 24.8 54 31.7c0 7.1-10.8 20.2-18.8 27.2a4.9 4.9 0 0 1-6.4 0C20.8 51.9 10 38.8 10 31.7c0-6.9 13.6-20.9 19.2-26.3Z"
  />
</svg>
